<svg width="73" height="100" viewBox="0 0 73 100" fill="none" xmlns="http://www.w3.org/2000/svg">
<path fill-rule="evenodd" clip-rule="evenodd" d="M59.2216 14.0938C68.6879 8.84179 70.563 0 70.563 0C70.563 0 85.0997 84.7109 31.0774 99.5449C15.049 100.875 14.127 88.0301 14.127 88.0301C14.127 88.0301 6.86969 87.6344 3.60348 80.4588C0.336651 73.281 -5.16094 51.0732 11.0135 35.7062C21.8656 25.3923 35.5996 21.5535 46.3216 18.5566C51.5763 17.0878 56.1075 15.8213 59.2216 14.0938ZM27.607 79.3201C30.039 79.4907 32.471 79.5761 34.903 79.5761C41.6017 79.5761 46.6364 78.4027 50.007 76.0561C53.4204 73.7094 55.127 70.2107 55.127 65.5601C55.127 63.2561 54.615 61.1867 53.591 59.3521C52.567 57.5174 50.647 56.0667 47.831 55.0001C51.2444 52.9521 52.951 50.1574 52.951 46.6161C52.951 44.2694 52.4604 42.3067 51.479 40.7281C50.5404 39.1067 49.2177 37.8054 47.511 36.8241C45.8044 35.8427 43.7564 35.1601 41.367 34.7761C39.0204 34.3494 36.439 34.1361 33.623 34.1361C31.5324 34.1361 29.271 34.2427 26.839 34.4561C24.407 34.6267 22.167 34.9041 20.119 35.2881V78.2961C22.7217 78.8507 25.2177 79.1921 27.607 79.3201ZM29.847 71.1281V59.6721H36.119C38.9777 59.6721 41.175 60.1201 42.711 61.0161C44.247 61.8694 45.015 63.3201 45.015 65.3681C45.015 67.6721 44.0977 69.2507 42.263 70.1041C40.4284 70.9574 38.0177 71.3841 35.031 71.3841C34.007 71.3841 33.0684 71.3627 32.215 71.3201C31.3617 71.2774 30.5724 71.2134 29.847 71.1281ZM34.711 52.0561H29.847V42.3921C30.615 42.3067 31.4897 42.2641 32.471 42.2641C33.4524 42.2214 34.3697 42.2001 35.223 42.2001C37.8684 42.2001 39.8737 42.5627 41.239 43.2881C42.6044 44.0134 43.287 45.2721 43.287 47.0641C43.287 48.8134 42.6257 50.0934 41.303 50.9041C39.9804 51.6721 37.783 52.0561 34.711 52.0561Z" fill="white"/>
</svg>
