<svg width="53" height="73" viewBox="0 0 53 73" fill="none" xmlns="http://www.w3.org/2000/svg">
<path fill-rule="evenodd" clip-rule="evenodd" d="M51.6963 0C51.6963 0 50.3225 6.47772 43.3873 10.3255C41.1058 11.5911 37.7861 12.519 33.9364 13.595C26.0812 15.7907 16.0193 18.6031 8.06875 26.1593C-3.78104 37.4176 0.246639 53.6875 2.64 58.9462C5.03292 64.2032 10.3498 64.4931 10.3498 64.4931C10.3498 64.4931 10.5783 67.6767 13.0801 70.1488V63H13.08V24.225H29.195C32.3117 24.225 34.9517 24.775 37.115 25.875C39.315 26.975 40.965 28.4967 42.065 30.44C43.165 32.3833 43.715 34.62 43.715 37.15C43.715 39.4967 43.165 41.6417 42.065 43.585C41.0017 45.4917 39.37 47.0317 37.17 48.205C35.0067 49.3417 32.3483 49.91 29.195 49.91H23.86V62H23.8601V72.6126C62.1489 60.9116 51.6963 0 51.6963 0ZM28.15 41.33C31.1933 41.33 32.715 39.9367 32.715 37.15C32.715 34.3267 31.1933 32.915 28.15 32.915H23.86V41.33H28.15Z" fill="white"/>
</svg>
