<svg width="240" height="113" viewBox="0 0 240 113" fill="none" xmlns="http://www.w3.org/2000/svg">
<path d="M75.864 79V48.792H82.456V79H75.864ZM79.192 41.304C78.04 41.304 77.1227 40.9627 76.44 40.28C75.7573 39.5547 75.416 38.6587 75.416 37.592C75.416 36.5253 75.7573 35.6507 76.44 34.968C77.1227 34.2427 78.04 33.88 79.192 33.88C80.3013 33.88 81.1973 34.2427 81.88 34.968C82.6053 35.6507 82.968 36.5253 82.968 37.592C82.968 38.7013 82.6053 39.5973 81.88 40.28C81.1973 40.9627 80.3013 41.304 79.192 41.304ZM121.103 63.576C121.103 66.0933 120.698 68.3547 119.887 70.36C119.119 72.3653 118.052 74.0507 116.687 75.416C115.322 76.7813 113.722 77.8267 111.887 78.552C110.052 79.2773 108.068 79.64 105.935 79.64C103.802 79.64 101.818 79.2987 99.983 78.616C98.191 77.9333 96.6123 76.952 95.247 75.672C93.9243 74.3493 92.879 72.728 92.111 70.808C91.3857 68.888 91.023 66.6907 91.023 64.216C91.023 61.656 91.407 59.3947 92.175 57.432C92.9857 55.4693 94.0737 53.8053 95.439 52.44C96.8043 51.0747 98.4043 50.0507 100.239 49.368C102.074 48.6427 104.058 48.28 106.191 48.28C108.324 48.28 110.287 48.6213 112.079 49.304C113.914 49.944 115.492 50.904 116.815 52.184C118.18 53.464 119.226 55.064 119.951 56.984C120.719 58.904 121.103 61.1013 121.103 63.576ZM114.255 63.896C114.255 61.976 114.02 60.3547 113.551 59.032C113.082 57.6667 112.463 56.5573 111.695 55.704C110.927 54.8507 110.052 54.232 109.071 53.848C108.09 53.464 107.066 53.272 105.999 53.272C104.975 53.272 103.972 53.4427 102.991 53.784C102.01 54.1253 101.135 54.7013 100.367 55.512C99.599 56.3227 98.9803 57.4107 98.511 58.776C98.0843 60.1413 97.871 61.848 97.871 63.896C97.871 65.7733 98.1057 67.3947 98.575 68.76C99.0443 70.1253 99.663 71.256 100.431 72.152C101.199 73.0053 102.074 73.6453 103.055 74.072C104.079 74.456 105.103 74.648 106.127 74.648C107.151 74.648 108.154 74.4773 109.135 74.136C110.116 73.7947 110.991 73.2187 111.759 72.408C112.527 71.5547 113.124 70.4453 113.551 69.08C114.02 67.672 114.255 65.944 114.255 63.896ZM140.682 33.24C142.005 33.24 143.349 33.432 144.714 33.816C146.079 34.1573 147.295 34.6053 148.362 35.16L147.018 39.64C146.207 39.2987 145.418 39.0213 144.65 38.808C143.925 38.5947 143.135 38.488 142.282 38.488C140.405 38.488 139.039 39.0213 138.186 40.088C137.375 41.112 136.97 42.904 136.97 45.464V48.792H145.674V53.656H136.97V79H130.442V53.656H125.962V48.792H130.442V43.672C130.442 40.344 131.338 37.784 133.13 35.992C134.922 34.1573 137.439 33.24 140.682 33.24ZM149.852 48.792H156.956L163.036 65.112L165.212 72.344H165.34L167.452 65.048L172.956 48.792H179.676L168.22 81.048C166.94 84.6747 165.297 87.6187 163.292 89.88C161.329 92.184 158.748 93.8907 155.548 95L152.732 89.816C154.865 89.0053 156.721 87.832 158.3 86.296C159.879 84.8027 161.052 82.84 161.82 80.408L162.332 78.936L149.852 48.792ZM203.17 53.656H194.594V69.976C194.594 71.4693 194.935 72.472 195.618 72.984C196.343 73.496 197.303 73.752 198.498 73.752C199.351 73.752 200.247 73.6667 201.186 73.496C202.167 73.2827 203.021 73.048 203.746 72.792L204.77 77.656C203.917 77.9973 202.807 78.3173 201.442 78.616C200.119 78.872 198.711 79 197.218 79C193.975 79 191.629 78.3387 190.178 77.016C188.77 75.6507 188.066 73.6453 188.066 71V53.656H183.458V48.792H188.066V39.256H194.594V48.792H203.17V53.656ZM211.881 51.48C213.844 50.4133 215.721 49.624 217.513 49.112C219.348 48.5573 221.375 48.28 223.593 48.28C225.3 48.28 226.857 48.472 228.265 48.856C229.716 49.24 230.953 49.8587 231.977 50.712C233.001 51.5653 233.791 52.7173 234.345 54.168C234.943 55.576 235.241 57.304 235.241 59.352V79H229.929L229.225 75.736H229.033C227.839 77.1013 226.452 78.104 224.873 78.744C223.295 79.3413 221.545 79.64 219.625 79.64C216.596 79.64 214.143 78.8293 212.265 77.208C210.431 75.5867 209.513 73.432 209.513 70.744C209.513 69.08 209.855 67.6507 210.537 66.456C211.22 65.2187 212.18 64.1947 213.417 63.384C214.655 62.5733 216.127 61.976 217.833 61.592C219.54 61.1653 221.417 60.952 223.465 60.952H228.585V58.648C228.585 56.728 228.073 55.4053 227.049 54.68C226.025 53.912 224.617 53.528 222.825 53.528C221.716 53.528 220.457 53.72 219.049 54.104C217.684 54.4453 216.105 55.1067 214.313 56.088L211.881 51.48ZM228.649 65.304L224.617 65.368C221.588 65.4533 219.455 65.9867 218.217 66.968C216.98 67.9493 216.361 69.1013 216.361 70.424C216.361 71.2773 216.489 71.9813 216.745 72.536C217.044 73.0907 217.428 73.5387 217.897 73.88C218.367 74.2213 218.9 74.4773 219.497 74.648C220.137 74.776 220.777 74.84 221.417 74.84C222.74 74.84 224.041 74.52 225.321 73.88C226.644 73.1973 227.753 72.2373 228.649 71V65.304Z" fill="white"/>
<path fill-rule="evenodd" clip-rule="evenodd" d="M59.2216 14.0938C68.6879 8.84179 70.563 0 70.563 0C70.563 0 85.0997 84.7109 31.0774 99.5449C15.049 100.875 14.127 88.0301 14.127 88.0301C14.127 88.0301 6.86969 87.6344 3.60348 80.4588C0.336651 73.281 -5.16094 51.0732 11.0135 35.7062C21.8656 25.3923 35.5996 21.5535 46.3216 18.5566C51.5763 17.0878 56.1075 15.8213 59.2216 14.0938ZM27.607 79.3201C30.039 79.4907 32.471 79.5761 34.903 79.5761C41.6017 79.5761 46.6364 78.4027 50.007 76.0561C53.4204 73.7094 55.127 70.2107 55.127 65.5601C55.127 63.2561 54.615 61.1867 53.591 59.3521C52.567 57.5174 50.647 56.0667 47.831 55.0001C51.2444 52.9521 52.951 50.1574 52.951 46.6161C52.951 44.2694 52.4604 42.3067 51.479 40.7281C50.5404 39.1067 49.2177 37.8054 47.511 36.8241C45.8044 35.8427 43.7564 35.1601 41.367 34.7761C39.0204 34.3494 36.439 34.1361 33.623 34.1361C31.5324 34.1361 29.271 34.2427 26.839 34.4561C24.407 34.6267 22.167 34.9041 20.119 35.2881V78.2961C22.7217 78.8507 25.2177 79.1921 27.607 79.3201ZM29.847 71.1281V59.6721H36.119C38.9777 59.6721 41.175 60.1201 42.711 61.0161C44.247 61.8694 45.015 63.3201 45.015 65.3681C45.015 67.6721 44.0977 69.2507 42.263 70.1041C40.4284 70.9574 38.0177 71.3841 35.031 71.3841C34.007 71.3841 33.0684 71.3627 32.215 71.3201C31.3617 71.2774 30.5724 71.2134 29.847 71.1281ZM34.711 52.0561H29.847V42.3921C30.615 42.3067 31.4897 42.2641 32.471 42.2641C33.4524 42.2214 34.3697 42.2001 35.223 42.2001C37.8684 42.2001 39.8737 42.5627 41.239 43.2881C42.6044 44.0134 43.287 45.2721 43.287 47.0641C43.287 48.8134 42.6257 50.0934 41.303 50.9041C39.9804 51.6721 37.783 52.0561 34.711 52.0561Z" fill="white"/>
</svg>
