<svg width="22" height="30" viewBox="0 0 22 30" fill="none" xmlns="http://www.w3.org/2000/svg">
<path d="M20.4512 2.66785C20.4858 3.05723 20.519 3.48262 20.5479 3.93903C20.6991 6.32048 20.7358 9.53283 20.2837 12.8723C19.3758 19.5773 16.5406 26.5392 9.03241 28.6377C7.99063 28.715 7.25174 28.5629 6.72927 28.3358C6.19992 28.1057 5.84238 27.7772 5.59248 27.4365C5.33716 27.0886 5.19033 26.7215 5.10816 26.4329C5.06762 26.2904 5.0444 26.1726 5.0316 26.0937C5.02523 26.0544 5.02153 26.0253 5.01958 26.0081L5.01791 25.9925L5.01787 25.9918L5.01779 25.991L5.01778 25.9908L4.96642 25.2751L4.21594 25.2341C4.21513 25.2341 4.21401 25.234 4.21257 25.2339C4.20567 25.2333 4.19173 25.232 4.17151 25.2295C4.13096 25.2246 4.06603 25.2152 3.9827 25.1982C3.8147 25.1639 3.58024 25.1004 3.32324 24.9852C2.8214 24.7604 2.22718 24.339 1.84703 23.5038L20.4512 2.66785ZM20.4512 2.66785C19.9004 3.40264 19.1104 4.18072 17.99 4.80233L17.99 4.80235C17.2158 5.23178 16.2053 5.55906 15.1153 5.87476C14.7583 5.97816 14.392 6.08054 14.0165 6.18546C13.2165 6.40904 12.3751 6.64419 11.4945 6.92543C8.92864 7.74488 6.18371 8.91195 3.90285 11.0797L3.90277 11.0798C1.66598 13.2049 0.924226 15.8006 0.857514 18.1365C0.790371 20.4874 1.40955 22.5426 1.84701 23.5038L20.4512 2.66785Z" fill="white" stroke="#333333" stroke-width="1.50722"/>
</svg>
