<svg width="20" height="24" viewBox="0 0 20 24" fill="none" xmlns="http://www.w3.org/2000/svg">
<path d="M12.25 13.5C11.8358 13.5 11.5 13.1642 11.5 12.75V11.25C11.5 10.8358 11.8358 10.5 12.25 10.5C12.6642 10.5 13 10.8358 13 11.25V12.75C13 13.1642 12.6642 13.5 12.25 13.5Z" fill="#477971"/>
<path fill-rule="evenodd" clip-rule="evenodd" d="M2 4C0.895431 4 0 4.89543 0 6V9.20001C0 9.47616 0.223858 9.70002 0.5 9.70002C1.88071 9.70002 3 10.8193 3 12.2C3 13.5807 1.88071 14.7 0.500001 14.7C0.223859 14.7 0 14.9239 0 15.2V18C0 19.1046 0.895431 20 2 20H18C19.1046 20 20 19.1046 20 18V15C20 14.7239 19.7761 14.5 19.5 14.5C18.1193 14.5 17 13.3807 17 12C17 10.6193 18.1193 9.50002 19.5 9.50002C19.7761 9.50002 20 9.27616 20 9.00002V6C20 4.89543 19.1046 4 18 4H2ZM1.5 6C1.5 5.72386 1.72386 5.5 2 5.5H11.5V7.5C11.5 7.91421 11.8358 8.25 12.25 8.25C12.6642 8.25 13 7.91421 13 7.5V5.5H18C18.2761 5.5 18.5 5.72386 18.5 6V8.12603C16.7748 8.57008 15.5 10.1362 15.5 12C15.5 13.8639 16.7748 15.43 18.5 15.874V18C18.5 18.2761 18.2761 18.5 18 18.5H13V16.5C13 16.0858 12.6642 15.75 12.25 15.75C11.8358 15.75 11.5 16.0858 11.5 16.5V18.5H2C1.72386 18.5 1.5 18.2761 1.5 18V16.074C3.22523 15.63 4.5 14.0639 4.5 12.2C4.5 10.3362 3.22523 8.77007 1.5 8.32603V6Z" fill="#477971"/>
</svg>
