<svg width="35" height="35" viewBox="0 0 35 35" fill="none" xmlns="http://www.w3.org/2000/svg">
<path d="M12.25 30.625H31.5V24.7734H12.25V30.625ZM3.5 10.2266H8.75V4.375H3.5V10.2266ZM3.5 20.4531H8.75V14.6016H3.5V20.4531ZM3.5 30.625H8.75V24.7734H3.5V30.625ZM12.25 20.4531H31.5V14.6016H12.25V20.4531ZM12.25 10.2266H31.5V4.375H12.25V10.2266ZM3.5 35C2.5375 35 1.71354 34.5716 1.02812 33.7148C0.342708 32.8581 0 31.8281 0 30.625V4.375C0 3.17187 0.342708 2.14193 1.02812 1.28516C1.71354 0.428385 2.5375 0 3.5 0H31.5C32.4625 0 33.2865 0.428385 33.9719 1.28516C34.6573 2.14193 35 3.17187 35 4.375V30.625C35 31.8281 34.6573 32.8581 33.9719 33.7148C33.2865 34.5716 32.4625 35 31.5 35H3.5Z" fill="#3C615A"/>
</svg>
