<svg width="18" height="18" viewBox="0 0 18 18" fill="none" xmlns="http://www.w3.org/2000/svg">
<path d="M15.518 0.256279C15.8597 -0.0854262 16.4137 -0.0854262 16.7554 0.256279C17.0971 0.597995 17.0971 1.15201 16.7554 1.49372L9.74326 8.50584L16.7554 15.518C17.0971 15.8597 17.0971 16.4137 16.7554 16.7555C16.4137 17.0972 15.8597 17.0972 15.518 16.7555L8.50578 9.74332L1.49372 16.7553C1.45101 16.7982 1.40498 16.8355 1.35645 16.8676C1.01683 17.0918 0.555281 17.0544 0.256288 16.7553C-0.0854292 16.4137 -0.0854292 15.8597 0.256288 15.518L7.26841 8.50584L0.256288 1.49377C-0.0854175 1.15207 -0.0854175 0.598042 0.256288 0.256337C0.597993 -0.0853678 1.15202 -0.0853678 1.49372 0.256337L8.50578 7.26847L15.518 0.256279Z" fill="#3C615A"/>
</svg>
